<?xml version="1.0" standalone="no"?>
<!DOCTYPE svg PUBLIC "-//W3C//DTD SVG 20010904//EN"
 "http://www.w3.org/TR/2001/REC-SVG-20010904/DTD/svg10.dtd">
<svg version="1.0" xmlns="http://www.w3.org/2000/svg"
 width="848.000000pt" height="848.000000pt" viewBox="0 0 848.000000 848.000000"
 preserveAspectRatio="xMidYMid meet">
<metadata>
Created by potrace 1.11, written by Peter Selinger 2001-2013
</metadata>
<g transform="translate(0.000000,848.000000) scale(0.100000,-0.100000)"
fill="#000000" stroke="none">
<path d="M4327 8388 c-14 -46 -31 -103 -38 -128 -15 -56 -13 -48 -44 -150 -14
-47 -27 -92 -29 -100 -2 -8 -23 -78 -46 -155 -23 -77 -43 -147 -45 -155 -2 -8
-13 -46 -25 -84 -12 -38 -23 -76 -26 -85 -2 -9 -30 -106 -63 -216 -90 -305
-238 -806 -277 -940 -20 -66 -44 -149 -55 -185 -11 -36 -22 -76 -25 -89 -3
-13 -10 -34 -16 -45 -6 -12 -10 -22 -9 -24 3 -3 -18 -79 -54 -197 -14 -44 -36
-118 -49 -165 -14 -47 -68 -231 -121 -410 -53 -179 -111 -377 -130 -440 -18
-63 -57 -194 -85 -290 -29 -96 -62 -211 -75 -255 -13 -44 -49 -165 -80 -270
-31 -104 -60 -203 -65 -220 -8 -30 -133 -454 -185 -630 -15 -49 -28 -94 -29
-100 -2 -10 -48 -166 -65 -220 -6 -16 -62 -208 -126 -425 -64 -217 -127 -431
-140 -475 -28 -93 -93 -314 -107 -365 -5 -19 -37 -125 -70 -235 -61 -203 -98
-330 -123 -420 -7 -27 -20 -70 -28 -95 -8 -25 -22 -70 -30 -100 -9 -30 -59
-201 -112 -379 -52 -178 -95 -328 -95 -333 0 -4 4 -8 9 -8 5 0 368 178 805
395 438 217 798 395 801 395 3 0 20 8 37 19 57 31 195 100 893 446 374 186
768 382 876 436 l197 98 53 -85 c30 -47 88 -137 130 -202 112 -173 141 -218
439 -682 150 -234 294 -457 319 -496 25 -38 52 -79 58 -90 7 -10 43 -67 80
-126 38 -59 69 -102 71 -95 1 7 -21 95 -48 197 -28 102 -53 193 -55 203 -2 9
-16 61 -30 115 -15 53 -36 131 -47 172 -11 41 -29 106 -40 144 -11 38 -21 76
-23 85 -2 9 -31 120 -65 246 -76 281 -73 269 -104 385 -14 52 -39 147 -56 210
-18 63 -33 122 -35 130 -2 8 -20 74 -40 145 -20 72 -38 139 -40 150 -3 11 -27
103 -55 205 -28 102 -53 192 -55 200 -15 64 -57 215 -65 235 -5 14 -7 25 -5
25 2 0 0 11 -5 25 -5 14 -12 36 -14 48 -3 12 -23 87 -44 167 -44 158 -131 481
-137 508 -5 21 -11 42 -73 272 -28 102 -60 221 -72 265 -12 44 -33 121 -46
170 -14 50 -27 98 -29 108 -2 10 -23 86 -46 170 -22 84 -43 159 -45 167 -1 8
-21 80 -43 160 -21 80 -51 188 -64 240 -14 52 -37 138 -52 190 -14 52 -27 102
-29 110 -9 37 -77 290 -91 335 -12 43 -59 219 -70 265 -2 8 -18 67 -35 130
-17 63 -33 122 -35 130 -2 8 -34 123 -70 255 -36 132 -67 249 -70 260 -4 20
-18 71 -100 375 -49 183 -116 426 -142 520 -8 30 -21 80 -28 110 -8 30 -25 96
-38 145 -34 121 -83 302 -108 400 -12 44 -23 81 -24 83 -2 2 -15 -34 -28 -80z"/>
</g>
</svg>
